<?xml version="1.0" encoding="utf-8"?>
<!-- Generator: Adobe Illustrator 25.2.0, SVG Export Plug-In . SVG Version: 6.00 Build 0)  -->
<svg version="1.0" id="Layer_1" xmlns="http://www.w3.org/2000/svg" xmlns:xlink="http://www.w3.org/1999/xlink" x="0px" y="0px"
	 viewBox="0 0 206.1 45.7" style="enable-background:new 0 0 206.1 45.7;" xml:space="preserve">
<style type="text/css">
	.st0{fill:#010101;}
	.st1{clip-path:url(#SVGID_2_);fill:#010101;}
	.st2{clip-path:url(#SVGID_4_);fill:#6F9D40;}
	.st3{clip-path:url(#SVGID_4_);fill:#0C9547;}
	.st4{clip-path:url(#SVGID_6_);fill:#0C9547;}
</style>
<polygon class="st0" points="78.8,12 73.3,28.3 73.2,28.3 67.4,12 58.7,12 58.7,37.4 64.5,37.4 64.3,19.4 64.4,19.4 70.8,37.4 
	75.1,37.4 81.7,19.4 81.8,19.4 81.7,37.4 87.7,37.4 87.7,12 "/>
<g>
	<defs>
		<rect id="SVGID_1_" x="9.8" y="8.7" width="188.5" height="29.2"/>
	</defs>
	<clipPath id="SVGID_2_">
		<use xlink:href="#SVGID_1_"  style="overflow:visible;"/>
	</clipPath>
	<path class="st1" d="M97.8,13.8c0,0.5-0.1,0.9-0.3,1.3c-0.2,0.4-0.4,0.7-0.7,1c-0.3,0.3-0.7,0.5-1.1,0.7c-0.4,0.2-0.9,0.2-1.3,0.2
		c-1,0-1.8-0.3-2.4-0.9c-0.6-0.6-1-1.4-1-2.3c0-0.4,0.1-0.8,0.3-1.2c0.2-0.4,0.4-0.7,0.7-1c0.3-0.3,0.7-0.5,1.1-0.7
		c0.4-0.2,0.8-0.3,1.3-0.3c0.5,0,0.9,0.1,1.3,0.3c0.4,0.2,0.8,0.4,1.1,0.7c0.3,0.3,0.5,0.6,0.7,1C97.7,13,97.8,13.4,97.8,13.8
		 M91.5,19.5h5.9v17.8h-5.9V19.5z"/>
	<path class="st1" d="M108.4,23.9v6.8c0,0.8,0.2,1.5,0.5,1.9c0.3,0.4,0.9,0.6,1.7,0.6c0.3,0,0.6,0,0.9-0.1c0.3,0,0.6-0.1,0.8-0.2
		l0.1,4.3c-0.4,0.1-0.9,0.3-1.5,0.4c-0.6,0.1-1.2,0.2-1.9,0.2c-1.2,0-2.2-0.1-3-0.4c-0.8-0.3-1.5-0.7-2-1.3c-0.5-0.6-0.8-1.2-1.1-2
		c-0.2-0.8-0.3-1.6-0.3-2.6v-7.5h-2.9v-4.4h2.8v-4.7h5.8v4.7h4.2v4.4H108.4z"/>
	<path class="st1" d="M120.9,23.9v6.8c0,0.8,0.2,1.5,0.5,1.9c0.3,0.4,0.9,0.6,1.7,0.6c0.3,0,0.6,0,0.9-0.1c0.3,0,0.6-0.1,0.8-0.2
		l0.1,4.3c-0.4,0.1-0.9,0.3-1.5,0.4c-0.6,0.1-1.2,0.2-1.9,0.2c-1.2,0-2.2-0.1-3-0.4c-0.8-0.3-1.5-0.7-2-1.3c-0.5-0.6-0.8-1.2-1.1-2
		c-0.2-0.8-0.3-1.6-0.3-2.6v-7.5h-2.9v-4.4h2.8v-4.7h5.8v4.7h4.2v4.4H120.9z"/>
	<path class="st1" d="M139.8,37.4v-9.7c0-0.5,0-1-0.1-1.4c-0.1-0.5-0.2-0.9-0.4-1.2c-0.2-0.3-0.5-0.6-0.8-0.8
		c-0.3-0.2-0.8-0.3-1.3-0.3c-1,0-1.8,0.4-2.4,1.1c-0.5,0.7-0.8,1.6-0.8,2.7v9.6h-5.9V10.3h5.9v11.5h0.1c0.4-0.7,1.1-1.4,1.9-1.9
		c0.9-0.6,1.9-0.8,3.2-0.8c1.2,0,2.2,0.2,3.1,0.6c0.8,0.4,1.5,1,2,1.7c0.5,0.7,0.9,1.5,1.1,2.3c0.2,0.9,0.3,1.8,0.3,2.7v11H139.8z"
		/>
	<path class="st1" d="M166.8,28.7v0.7c0,0.2,0,0.5,0,0.7h-12.9c0,0.5,0.2,1,0.4,1.4c0.3,0.4,0.6,0.8,1,1.1c0.4,0.3,0.8,0.5,1.3,0.7
		s1,0.3,1.5,0.3c0.9,0,1.7-0.2,2.4-0.5c0.6-0.3,1.2-0.8,1.6-1.3l4.1,2.6c-0.8,1.2-1.9,2.2-3.3,2.8c-1.4,0.7-3,1-4.8,1
		c-1.3,0-2.6-0.2-3.8-0.6c-1.2-0.4-2.2-1-3.1-1.8c-0.9-0.8-1.6-1.8-2.1-3c-0.5-1.2-0.8-2.5-0.8-4c0-1.5,0.3-2.8,0.8-4
		c0.5-1.2,1.2-2.2,2-3c0.9-0.8,1.9-1.5,3-1.9c1.2-0.5,2.4-0.7,3.8-0.7c1.3,0,2.5,0.2,3.6,0.7c1.1,0.4,2,1.1,2.8,1.9
		c0.8,0.8,1.4,1.8,1.8,3C166.6,25.8,166.8,27.1,166.8,28.7 M161.4,26.4c0-0.9-0.3-1.7-0.9-2.4c-0.6-0.7-1.5-1-2.6-1
		c-0.6,0-1.1,0.1-1.6,0.3c-0.5,0.2-0.9,0.4-1.3,0.7c-0.4,0.3-0.6,0.7-0.9,1.1c-0.2,0.4-0.3,0.9-0.4,1.3H161.4z"/>
	<path class="st1" d="M192.3,37.4v-9.7c0-0.5,0-1-0.1-1.5c-0.1-0.5-0.2-0.9-0.4-1.2c-0.2-0.3-0.4-0.6-0.8-0.8
		c-0.3-0.2-0.7-0.3-1.3-0.3c-0.5,0-0.9,0.1-1.3,0.3c-0.4,0.2-0.7,0.5-0.9,0.9c-0.3,0.4-0.4,0.8-0.6,1.2c-0.1,0.5-0.2,0.9-0.2,1.5
		v9.6H181V27.2c0-1-0.2-1.8-0.6-2.4c-0.4-0.6-1.1-0.9-1.9-0.9c-0.9,0-1.7,0.4-2.2,1.1c-0.5,0.7-0.8,1.6-0.8,2.7v9.7h-5.9V19.5h5.7
		V22h0.1c0.2-0.4,0.5-0.8,0.8-1.1c0.3-0.4,0.7-0.7,1.2-0.9c0.5-0.3,1-0.5,1.5-0.7c0.6-0.2,1.2-0.3,1.8-0.3c1.3,0,2.4,0.3,3.3,0.8
		c0.9,0.5,1.6,1.3,2.1,2.3c0.6-0.9,1.4-1.7,2.3-2.2c0.9-0.5,2.1-0.8,3.4-0.8c1.2,0,2.2,0.2,3.1,0.7c0.8,0.4,1.5,1,2,1.7
		c0.5,0.7,0.9,1.5,1.1,2.4c0.2,0.9,0.3,1.7,0.3,2.6v11H192.3z"/>
</g>
<g>
	<defs>
		<rect id="SVGID_3_" x="9.8" y="8.7" width="188.4" height="29.2"/>
	</defs>
	<clipPath id="SVGID_4_">
		<use xlink:href="#SVGID_3_"  style="overflow:visible;"/>
	</clipPath>
	<polygon class="st2" points="34.2,20.4 28.8,17.1 23.4,20.4 23.4,37.4 34.2,37.4 	"/>
	<polygon class="st3" points="20.5,12 15.2,8.7 9.8,12 9.8,37.4 20.5,37.4 	"/>
</g>
<g>
	<defs>
		<rect id="SVGID_5_" x="9.8" y="8.7" width="188.5" height="29.2"/>
	</defs>
	<clipPath id="SVGID_6_">
		<use xlink:href="#SVGID_5_"  style="overflow:visible;"/>
	</clipPath>
	<polygon class="st4" points="47.9,12 42.5,8.7 37.1,12 37.1,37.4 47.9,37.4 	"/>
</g>
</svg>
