<?xml version="1.0" encoding="UTF-8"?><svg xmlns="http://www.w3.org/2000/svg" viewBox="0 0 363 48.04"><defs><style>.d{fill:#e73f2d;}.e{fill:#168fc6;}.f{fill:#2f3848;}</style></defs><g id="a"/><g id="b"><g id="c"><g><path class="e" d="M58.25,2.97S30.15-5.25,14.87,5.64c-2.02,1.44-3.47,3.62-3.76,6.08-.37,3.13,.83,7.58,7.08,12.88,.19,.16,.38,.31,.58,.46,2.03,1.47,13.15,9.03,30.52,11.42,13.48,1.86,26.55,.52,33.49-1.93,6.76-2.39,15.51-8.18,6.69-18.65,0,0,9.11,11.41-5.23,16.25-12.56,4.24-26.32,2.04-37.13-.55,0,0-17.51-3.75-23-11.68,0,0-6.16-6.91-.92-12.21,.59-.6,1.29-1.08,2.04-1.47,3.48-1.84,15.42-7.05,33.02-3.26Z"/><path class="d" d="M40.96,11.12s29.1,3.23,39.02,19.16c1.31,2.11,1.81,4.67,1.14,7.06-.86,3.04-3.68,6.68-11.49,9.17-.24,.08-.47,.14-.72,.2-2.44,.58-15.61,3.28-32.56-1.2-13.15-3.47-24.71-9.73-30.16-14.67-5.32-4.81-11.17-13.52,1-19.79,0,0-12.8,7.03-1.43,17.01,9.97,8.74,23.51,12.01,34.48,13.78,0,0,17.61,3.28,25.73-1.93,0,0,8.34-4.01,5.55-10.92-.32-.78-.78-1.49-1.32-2.14-2.51-3.04-11.52-12.44-29.23-15.71Z"/><path class="f" d="M114.16,35.8l2.71-6.1c2.07,1.74,5.36,3.96,10.13,3.96,2.9,0,6.32-1.14,6.32-3.49s-3.23-3.02-6.39-3.96c-6.07-1.74-11.23-3.62-11.23-10.13s6.39-9.99,12-9.99c4.78,0,7.94,1.27,11.42,3.42l-2.65,6.04c-2.84-1.68-5.55-2.48-8.71-2.48-2.39,0-4.78,1.14-4.78,2.88,0,2.28,2.65,2.82,5.49,3.42,5.94,1.34,12.13,3.82,12.13,10.66,0,7.78-7.68,10.6-13.62,10.6-6.58,0-11.1-3.09-12.84-4.83Z"/><path class="f" d="M144.11,24.04c0-9.16,7.16-16.65,16.46-16.65,8.52,0,15.36,7.42,15.36,16.39,0,1.36-.19,2.77-.19,2.77h-24.2c1.03,5.1,5.16,7.74,9.94,7.74,3.23,0,6.58-.97,9.16-2.78l2.84,5.29c-3.61,2.45-7.87,3.81-12.13,3.81-9.1,0-17.23-6.07-17.23-16.59Zm24.84-2.77c-.71-4.58-4.39-7.61-8.78-7.61-4.13,0-7.74,3.03-8.71,7.61h17.49Z"/><path class="f" d="M180.17,8.74h6.9v4.91c1.53-2.94,7.35-5.06,11.16-5.54l.08,6.52c-6.64,1.28-11.24,4.51-11.24,16.54v8.75h-6.9V8.74Z"/><path class="f" d="M200.79,7.98h7.6l6.52,16.13c1.68,4.13,2.97,8.58,2.97,8.58,0,0,1.35-4.52,2.97-8.52l6.45-16.2h7.6l-13.19,32.01h-7.6l-13.31-32.01Z"/><path class="f" d="M235,23.98c0-9.23,6-16.65,14.78-16.65,4.32,0,8.13,1.74,10.65,4.71V7.98h7.16v31.94h-7.16v-4c-2.52,2.97-6.32,4.65-10.65,4.65-8.78,0-14.78-7.42-14.78-16.59Zm25.43,0c0-5.61-3.74-9.74-8.84-9.74-5.42,0-9.29,4.13-9.29,9.74,0,5.61,3.87,9.68,9.29,9.68,5.03,0,8.84-4,8.84-9.68Z"/><path class="f" d="M273.38,7.98h7.16v4.58c2.39-3.55,6.07-5.23,10.33-5.23,8.65,0,11.49,5.74,11.49,14.26v18.33h-7.16V22.5c0-5.23-1.16-8.26-6.52-8.26-4.71,0-8.13,3.68-8.13,8.97v16.71h-7.16V7.98Z"/><path class="f" d="M306.91,23.98c0-9.16,7.16-16.65,16.46-16.65,8.52,0,15.36,7.42,15.36,16.39,0,1.36-.19,2.77-.19,2.77h-24.2c1.03,5.1,5.16,7.74,9.94,7.74,3.23,0,6.58-.97,9.16-2.78l2.84,5.29c-3.61,2.45-7.87,3.81-12.13,3.81-9.1,0-17.23-6.07-17.23-16.59Zm24.85-2.77c-.71-4.58-4.39-7.61-8.78-7.61-4.13,0-7.74,3.03-8.71,7.61h17.49Z"/><path class="f" d="M345.64,29.54V13.73h-4.71V7.86h4.71V1.6l7.16-1.48V7.86h9.62v5.87h-9.62V29.73c0,3.42,1.61,4.52,3.42,4.52,2.52,0,4.65-1.55,4.65-1.55l2.13,5.36c-1.48,.97-4.07,2.39-7.68,2.39-6.52,0-9.68-3.55-9.68-10.91Z"/></g></g></g></svg>